<svg width="13" height="13" viewBox="0 0 13 13" fill="none" xmlns="http://www.w3.org/2000/svg">
<path d="M11.4922 5.86147L9.37816 7.70647L10.0114 10.4533C10.045 10.5969 10.0354 10.7472 9.98395 10.8854C9.93251 11.0236 9.84147 11.1436 9.72222 11.2303C9.60297 11.3171 9.4608 11.3667 9.31348 11.3731C9.16617 11.3795 9.02024 11.3423 8.89394 11.2662L6.49816 9.81303L4.10753 11.2662C3.98124 11.3423 3.83531 11.3795 3.68799 11.3731C3.54067 11.3667 3.3985 11.3171 3.27925 11.2303C3.16 11.1436 3.06897 11.0236 3.01753 10.8854C2.96609 10.7472 2.95652 10.5969 2.99003 10.4533L3.62238 7.70928L1.50785 5.86147C1.39601 5.76501 1.31514 5.63768 1.27537 5.49544C1.23561 5.35321 1.23873 5.2024 1.28433 5.06193C1.32994 4.92145 1.416 4.79757 1.53173 4.70582C1.64746 4.61407 1.78771 4.55852 1.93488 4.54616L4.72207 4.30475L5.81003 1.70975C5.86685 1.57359 5.96268 1.45728 6.08547 1.37546C6.20825 1.29365 6.35249 1.25 6.50003 1.25C6.64758 1.25 6.79182 1.29365 6.9146 1.37546C7.03739 1.45728 7.13322 1.57359 7.19003 1.70975L8.28128 4.30475L11.0675 4.54616C11.2147 4.55852 11.3549 4.61407 11.4707 4.70582C11.5864 4.79757 11.6725 4.92145 11.7181 5.06193C11.7637 5.2024 11.7668 5.35321 11.727 5.49544C11.6873 5.63768 11.6064 5.76501 11.4946 5.86147H11.4922Z" fill="#FF7D01"/>
</svg>
