<svg width="13" height="13" viewBox="0 0 13 13" fill="none" xmlns="http://www.w3.org/2000/svg">
<path d="M11.2455 5.36083C11.2349 5.39878 11.2155 5.43355 11.1891 5.46241L11.1635 5.48476L9.04939 7.32976L8.82362 7.52679L8.89094 7.8188L9.52422 10.5657L9.52452 10.567C9.5357 10.6148 9.53251 10.6649 9.51536 10.711C9.49821 10.7571 9.46787 10.7971 9.42812 10.826C9.38837 10.8549 9.34098 10.8714 9.29187 10.8736C9.24294 10.8757 9.19447 10.8634 9.15248 10.8382C9.15233 10.8381 9.15217 10.838 9.15202 10.8379L6.75746 9.38552L6.49788 9.22808L6.23845 9.38577L3.84945 10.8379C3.84923 10.838 3.849 10.8382 3.84878 10.8383C3.80683 10.8634 3.75845 10.8757 3.7096 10.8736C3.6605 10.8714 3.61311 10.8549 3.57336 10.826C3.53361 10.7971 3.50326 10.7571 3.48612 10.711C3.46897 10.6649 3.46578 10.6148 3.47695 10.567L3.47727 10.5656L4.10961 7.82156L4.17684 7.5298L3.95139 7.33278L1.83686 5.48497L1.83686 5.48496L1.8344 5.48284C1.79712 5.45069 1.77017 5.40824 1.75691 5.36083C1.74366 5.31342 1.7447 5.26315 1.7599 5.21632C1.7751 5.1695 1.80379 5.12821 1.84237 5.09762C1.88094 5.06704 1.92769 5.04852 1.97675 5.0444L1.97802 5.04429L4.76521 4.80289L5.06632 4.7768L5.18318 4.49807L6.27115 1.90307L6.27148 1.90229C6.2903 1.85719 6.32204 1.81866 6.36271 1.79156C6.40338 1.76446 6.45116 1.75 6.50003 1.75C6.54891 1.75 6.59669 1.76446 6.63736 1.79156L6.91246 1.37869L6.63736 1.79156C6.67803 1.81866 6.70977 1.85719 6.72859 1.90229L6.72913 1.90357L7.82038 4.49857L7.93739 4.77683L8.23812 4.80288L11.0244 5.04429L11.0257 5.0444C11.0747 5.04852 11.1215 5.06704 11.16 5.09762C11.1986 5.12821 11.2273 5.1695 11.2425 5.21632L11.7181 5.06193L11.2425 5.21633C11.2577 5.26315 11.2588 5.31342 11.2455 5.36083L11.2909 5.37352L11.2455 5.36083Z" stroke="#FF7D01"/>
</svg>
